<svg xmlns="http://www.w3.org/2000/svg" viewBox="0 0 103.11 26.02"><defs><style>.cls-1{fill:#cf000e;}</style></defs><g id="レイヤー_2" data-name="レイヤー 2"><g id="contents"><g id="新規シンボル_20" data-name="新規シンボル 20"><path class="cls-1" d="M26,0a2.87,2.87,0,1,0,2.87,2.87A2.86,2.86,0,0,0,26,0"/><path class="cls-1" d="M28.16,7H23.79a.58.58,0,0,0-.58.58v17.3a.58.58,0,0,0,.58.58h4.37a.58.58,0,0,0,.58-.58V7.59A.58.58,0,0,0,28.16,7"/><path class="cls-1" d="M43.24,6.56c-4.1,0-5.3,1.71-6,2.41V7.6A.58.58,0,0,0,36.66,7H32.37a.58.58,0,0,0-.57.59V24.88a.58.58,0,0,0,.57.59h4.38a.57.57,0,0,0,.57-.59V15.1c0-2.5,1.52-4.37,4.06-4.37,2.71,0,4,1.92,4,4.37v9.78a.58.58,0,0,0,.58.59h4.38a.58.58,0,0,0,.57-.59V13.75c0-5.4-3.76-7.19-7.71-7.19"/><path class="cls-1" d="M65.4,6.56c-4.11,0-5.3,1.71-6,2.41V7.6A.57.57,0,0,0,58.81,7H54.53A.58.58,0,0,0,54,7.6V24.88a.58.58,0,0,0,.58.59H58.9a.58.58,0,0,0,.58-.59V15.1c0-2.5,1.52-4.37,4.05-4.37,2.72,0,4,1.92,4,4.37v9.78a.57.57,0,0,0,.57.59h4.38a.58.58,0,0,0,.57-.59V13.75c0-5.4-3.76-7.19-7.7-7.19"/><path class="cls-1" d="M100.24,5.74a2.87,2.87,0,1,0-2.86-2.87,2.87,2.87,0,0,0,2.86,2.87"/><path class="cls-1" d="M102.43,7H98.06a.58.58,0,0,0-.58.58v17.3a.58.58,0,0,0,.58.58h4.37a.58.58,0,0,0,.58-.58V7.59a.58.58,0,0,0-.58-.58"/><path class="cls-1" d="M8.85,12.15H5.54V5.07H8.85c2.68,0,4.92.47,4.92,3.54s-2.24,3.54-4.92,3.54M15,15.49c1.15-.4,4.35-1.47,4.35-6.88S15.75,1.22,9.46,1.22H.58A.58.58,0,0,0,0,1.79V24.91a.57.57,0,0,0,.58.56H5a.57.57,0,0,0,.58-.56V16H9l6.09,8.77a1.53,1.53,0,0,0,1.3.7H21a.45.45,0,0,0,.39-.69Z"/><path class="cls-1" d="M89.19,18.18c0,2.67-1.71,4.25-4.64,4.33-2.16.06-4-.86-4-2.29-.12-3.24,6.62-3.11,8.13-3,.52,0,.55,0,.55.3ZM81.62,7.07c-3.74,1-5.14,3.36-5.64,4.84-.09.27.2.49.45.49l4.93,0a.6.6,0,0,0,.48-.19,4.51,4.51,0,0,1,4-1.52c3.55.21,3.27,3.09,3.27,3.33-11.93-1.09-14.92,4.23-13.41,8.15,1.74,4.5,10.47,5,13.32,1.89.35,1,.42,1.44,1.21,1.44H94a.58.58,0,0,0,.59-.59V14c0-7.88-8.83-8-12.93-6.91"/></g></g></g></svg>